<mxfile host="app.diagrams.net" modified="2022-08-31T00:05:19.579Z" agent="5.0 (Windows NT 10.0; Win64; x64) AppleWebKit/537.36 (KHTML, like Gecko) Chrome/101.0.4951.67 Safari/537.36 OPR/87.0.4390.58" etag="OWBvY7TPMga5FRC0b4zg" version="20.2.7" type="github">
  <diagram id="jvY65wUAQ7JAJhoiNj4q" name="Sayfa -1">
    <mxGraphModel dx="952" dy="527" grid="1" gridSize="10" guides="1" tooltips="1" connect="1" arrows="1" fold="1" page="1" pageScale="1" pageWidth="827" pageHeight="1169" math="0" shadow="0">
      <root>
        <mxCell id="0" />
        <mxCell id="1" parent="0" />
        <mxCell id="a1jD6eOK8sLwa8C1MBCz-1" value="Üniversite" style="swimlane;fontStyle=1;align=center;verticalAlign=top;childLayout=stackLayout;horizontal=1;startSize=26;horizontalStack=0;resizeParent=1;resizeParentMax=0;resizeLast=0;collapsible=1;marginBottom=0;" vertex="1" parent="1">
          <mxGeometry x="320" y="40" width="160" height="34" as="geometry" />
        </mxCell>
        <mxCell id="a1jD6eOK8sLwa8C1MBCz-3" value="" style="line;strokeWidth=1;fillColor=none;align=left;verticalAlign=middle;spacingTop=-1;spacingLeft=3;spacingRight=3;rotatable=0;labelPosition=right;points=[];portConstraint=eastwest;" vertex="1" parent="a1jD6eOK8sLwa8C1MBCz-1">
          <mxGeometry y="26" width="160" height="8" as="geometry" />
        </mxCell>
        <mxCell id="a1jD6eOK8sLwa8C1MBCz-5" value="Sınıflık" style="swimlane;fontStyle=1;align=center;verticalAlign=top;childLayout=stackLayout;horizontal=1;startSize=26;horizontalStack=0;resizeParent=1;resizeParentMax=0;resizeLast=0;collapsible=1;marginBottom=0;" vertex="1" parent="1">
          <mxGeometry x="740" y="160" width="160" height="34" as="geometry" />
        </mxCell>
        <mxCell id="a1jD6eOK8sLwa8C1MBCz-7" value="" style="line;strokeWidth=1;fillColor=none;align=left;verticalAlign=middle;spacingTop=-1;spacingLeft=3;spacingRight=3;rotatable=0;labelPosition=right;points=[];portConstraint=eastwest;" vertex="1" parent="a1jD6eOK8sLwa8C1MBCz-5">
          <mxGeometry y="26" width="160" height="8" as="geometry" />
        </mxCell>
        <mxCell id="a1jD6eOK8sLwa8C1MBCz-17" value="Departman" style="swimlane;fontStyle=1;align=center;verticalAlign=top;childLayout=stackLayout;horizontal=1;startSize=26;horizontalStack=0;resizeParent=1;resizeParentMax=0;resizeLast=0;collapsible=1;marginBottom=0;" vertex="1" parent="1">
          <mxGeometry x="560" y="160" width="160" height="34" as="geometry" />
        </mxCell>
        <mxCell id="a1jD6eOK8sLwa8C1MBCz-19" value="" style="line;strokeWidth=1;fillColor=none;align=left;verticalAlign=middle;spacingTop=-1;spacingLeft=3;spacingRight=3;rotatable=0;labelPosition=right;points=[];portConstraint=eastwest;" vertex="1" parent="a1jD6eOK8sLwa8C1MBCz-17">
          <mxGeometry y="26" width="160" height="8" as="geometry" />
        </mxCell>
        <mxCell id="a1jD6eOK8sLwa8C1MBCz-27" value="Çalışan" style="swimlane;fontStyle=1;align=center;verticalAlign=top;childLayout=stackLayout;horizontal=1;startSize=26;horizontalStack=0;resizeParent=1;resizeParentMax=0;resizeLast=0;collapsible=1;marginBottom=0;" vertex="1" parent="1">
          <mxGeometry x="85" y="160" width="160" height="34" as="geometry" />
        </mxCell>
        <mxCell id="a1jD6eOK8sLwa8C1MBCz-29" value="" style="line;strokeWidth=1;fillColor=none;align=left;verticalAlign=middle;spacingTop=-1;spacingLeft=3;spacingRight=3;rotatable=0;labelPosition=right;points=[];portConstraint=eastwest;" vertex="1" parent="a1jD6eOK8sLwa8C1MBCz-27">
          <mxGeometry y="26" width="160" height="8" as="geometry" />
        </mxCell>
        <mxCell id="a1jD6eOK8sLwa8C1MBCz-73" style="edgeStyle=orthogonalEdgeStyle;rounded=0;orthogonalLoop=1;jettySize=auto;html=1;exitX=1;exitY=0.5;exitDx=0;exitDy=0;exitPerimeter=0;" edge="1" parent="1" source="a1jD6eOK8sLwa8C1MBCz-36" target="a1jD6eOK8sLwa8C1MBCz-27">
          <mxGeometry relative="1" as="geometry">
            <mxPoint x="140.57142857142867" y="240" as="targetPoint" />
          </mxGeometry>
        </mxCell>
        <mxCell id="a1jD6eOK8sLwa8C1MBCz-36" value="" style="shape=requiredInterface;html=1;verticalLabelPosition=bottom;sketch=0;rotation=-90;" vertex="1" parent="1">
          <mxGeometry x="140" y="240" width="50" height="193.75" as="geometry" />
        </mxCell>
        <mxCell id="a1jD6eOK8sLwa8C1MBCz-39" value="Profesör" style="swimlane;fontStyle=1;align=center;verticalAlign=top;childLayout=stackLayout;horizontal=1;startSize=26;horizontalStack=0;resizeParent=1;resizeParentMax=0;resizeLast=0;collapsible=1;marginBottom=0;" vertex="1" parent="1">
          <mxGeometry x="10" y="360" width="130" height="34" as="geometry" />
        </mxCell>
        <mxCell id="a1jD6eOK8sLwa8C1MBCz-41" value="" style="line;strokeWidth=1;fillColor=none;align=left;verticalAlign=middle;spacingTop=-1;spacingLeft=3;spacingRight=3;rotatable=0;labelPosition=right;points=[];portConstraint=eastwest;" vertex="1" parent="a1jD6eOK8sLwa8C1MBCz-39">
          <mxGeometry y="26" width="130" height="8" as="geometry" />
        </mxCell>
        <mxCell id="a1jD6eOK8sLwa8C1MBCz-43" value="Memur" style="swimlane;fontStyle=1;align=center;verticalAlign=top;childLayout=stackLayout;horizontal=1;startSize=26;horizontalStack=0;resizeParent=1;resizeParentMax=0;resizeLast=0;collapsible=1;marginBottom=0;" vertex="1" parent="1">
          <mxGeometry x="210" y="360" width="120" height="34" as="geometry" />
        </mxCell>
        <mxCell id="a1jD6eOK8sLwa8C1MBCz-45" value="" style="line;strokeWidth=1;fillColor=none;align=left;verticalAlign=middle;spacingTop=-1;spacingLeft=3;spacingRight=3;rotatable=0;labelPosition=right;points=[];portConstraint=eastwest;" vertex="1" parent="a1jD6eOK8sLwa8C1MBCz-43">
          <mxGeometry y="26" width="120" height="8" as="geometry" />
        </mxCell>
        <mxCell id="a1jD6eOK8sLwa8C1MBCz-50" value="" style="endArrow=none;startArrow=diamondThin;endFill=0;startFill=1;html=1;verticalAlign=bottom;labelBackgroundColor=none;strokeWidth=1;startSize=8;endSize=8;rounded=0;exitX=0.5;exitY=0;exitDx=0;exitDy=0;" edge="1" parent="1" source="a1jD6eOK8sLwa8C1MBCz-1" target="a1jD6eOK8sLwa8C1MBCz-5">
          <mxGeometry width="160" relative="1" as="geometry">
            <mxPoint x="480" y="56.66" as="sourcePoint" />
            <mxPoint x="830" y="160" as="targetPoint" />
            <Array as="points">
              <mxPoint x="400" y="20" />
              <mxPoint x="820" y="20" />
            </Array>
          </mxGeometry>
        </mxCell>
        <mxCell id="a1jD6eOK8sLwa8C1MBCz-51" value="" style="endArrow=none;startArrow=diamondThin;endFill=0;startFill=1;html=1;verticalAlign=bottom;labelBackgroundColor=none;strokeWidth=1;startSize=8;endSize=8;rounded=0;entryX=0.5;entryY=0;entryDx=0;entryDy=0;" edge="1" parent="1" source="a1jD6eOK8sLwa8C1MBCz-1" target="a1jD6eOK8sLwa8C1MBCz-17">
          <mxGeometry width="160" relative="1" as="geometry">
            <mxPoint x="500" y="30" as="sourcePoint" />
            <mxPoint x="560" y="90" as="targetPoint" />
            <Array as="points">
              <mxPoint x="640" y="57" />
              <mxPoint x="640" y="120" />
            </Array>
          </mxGeometry>
        </mxCell>
        <mxCell id="a1jD6eOK8sLwa8C1MBCz-53" value="" style="endArrow=none;startArrow=diamondThin;endFill=0;startFill=1;html=1;verticalAlign=bottom;labelBackgroundColor=none;strokeWidth=1;startSize=8;endSize=8;rounded=0;exitX=0;exitY=0.5;exitDx=0;exitDy=0;" edge="1" parent="1" source="a1jD6eOK8sLwa8C1MBCz-1" target="a1jD6eOK8sLwa8C1MBCz-27">
          <mxGeometry width="160" relative="1" as="geometry">
            <mxPoint x="50" y="110" as="sourcePoint" />
            <mxPoint x="210" y="110" as="targetPoint" />
            <Array as="points">
              <mxPoint x="240" y="57" />
              <mxPoint x="165" y="57" />
            </Array>
          </mxGeometry>
        </mxCell>
        <mxCell id="a1jD6eOK8sLwa8C1MBCz-57" value="" style="endArrow=none;html=1;rounded=0;align=center;verticalAlign=top;endFill=0;labelBackgroundColor=none;" edge="1" parent="1" source="a1jD6eOK8sLwa8C1MBCz-84" target="a1jD6eOK8sLwa8C1MBCz-43">
          <mxGeometry relative="1" as="geometry">
            <mxPoint x="400" y="194" as="sourcePoint" />
            <mxPoint x="380" y="240" as="targetPoint" />
            <Array as="points" />
          </mxGeometry>
        </mxCell>
        <mxCell id="a1jD6eOK8sLwa8C1MBCz-58" value="" style="resizable=0;html=1;align=left;verticalAlign=bottom;labelBackgroundColor=none;" connectable="0" vertex="1" parent="a1jD6eOK8sLwa8C1MBCz-57">
          <mxGeometry x="-1" relative="1" as="geometry" />
        </mxCell>
        <mxCell id="a1jD6eOK8sLwa8C1MBCz-59" value="" style="resizable=0;html=1;align=left;verticalAlign=top;labelBackgroundColor=none;" connectable="0" vertex="1" parent="a1jD6eOK8sLwa8C1MBCz-57">
          <mxGeometry x="-1" relative="1" as="geometry" />
        </mxCell>
        <mxCell id="a1jD6eOK8sLwa8C1MBCz-61" value="" style="endArrow=none;html=1;rounded=0;align=center;verticalAlign=top;endFill=0;labelBackgroundColor=none;" edge="1" parent="1" source="a1jD6eOK8sLwa8C1MBCz-39" target="a1jD6eOK8sLwa8C1MBCz-84">
          <mxGeometry relative="1" as="geometry">
            <mxPoint x="40" y="380" as="sourcePoint" />
            <mxPoint x="400" y="194" as="targetPoint" />
            <Array as="points">
              <mxPoint x="75" y="420" />
              <mxPoint x="400" y="420" />
              <mxPoint x="640" y="420" />
            </Array>
          </mxGeometry>
        </mxCell>
        <mxCell id="a1jD6eOK8sLwa8C1MBCz-66" value="has" style="text;align=center;fontStyle=1;verticalAlign=middle;spacingLeft=3;spacingRight=3;strokeColor=none;rotatable=0;points=[[0,0.5],[1,0.5]];portConstraint=eastwest;" vertex="1" parent="1">
          <mxGeometry x="140" y="56" width="80" height="26" as="geometry" />
        </mxCell>
        <mxCell id="a1jD6eOK8sLwa8C1MBCz-67" value="has" style="text;align=center;fontStyle=1;verticalAlign=middle;spacingLeft=3;spacingRight=3;strokeColor=none;rotatable=0;points=[[0,0.5],[1,0.5]];portConstraint=eastwest;" vertex="1" parent="1">
          <mxGeometry x="660" y="14" width="80" height="26" as="geometry" />
        </mxCell>
        <mxCell id="a1jD6eOK8sLwa8C1MBCz-68" value="has" style="text;align=center;fontStyle=1;verticalAlign=middle;spacingLeft=3;spacingRight=3;strokeColor=none;rotatable=0;points=[[0,0.5],[1,0.5]];portConstraint=eastwest;" vertex="1" parent="1">
          <mxGeometry x="560" y="56" width="80" height="26" as="geometry" />
        </mxCell>
        <mxCell id="a1jD6eOK8sLwa8C1MBCz-70" value="1..*" style="text;align=center;fontStyle=1;verticalAlign=middle;spacingLeft=3;spacingRight=3;strokeColor=none;rotatable=0;points=[[0,0.5],[1,0.5]];portConstraint=eastwest;" vertex="1" parent="1">
          <mxGeometry x="610" y="140" width="80" height="26" as="geometry" />
        </mxCell>
        <mxCell id="a1jD6eOK8sLwa8C1MBCz-71" value="1..*" style="text;align=center;fontStyle=1;verticalAlign=middle;spacingLeft=3;spacingRight=3;strokeColor=none;rotatable=0;points=[[0,0.5],[1,0.5]];portConstraint=eastwest;" vertex="1" parent="1">
          <mxGeometry x="800" y="140" width="60" height="26" as="geometry" />
        </mxCell>
        <mxCell id="a1jD6eOK8sLwa8C1MBCz-78" value="1" style="text;align=center;fontStyle=1;verticalAlign=middle;spacingLeft=3;spacingRight=3;strokeColor=none;rotatable=0;points=[[0,0.5],[1,0.5]];portConstraint=eastwest;" vertex="1" parent="1">
          <mxGeometry x="520" y="360" width="70" height="16" as="geometry" />
        </mxCell>
        <mxCell id="a1jD6eOK8sLwa8C1MBCz-79" value="1" style="text;align=center;fontStyle=1;verticalAlign=middle;spacingLeft=3;spacingRight=3;strokeColor=none;rotatable=0;points=[[0,0.5],[1,0.5]];portConstraint=eastwest;" vertex="1" parent="1">
          <mxGeometry x="40" y="380" width="80" height="40" as="geometry" />
        </mxCell>
        <mxCell id="a1jD6eOK8sLwa8C1MBCz-80" value="1" style="text;align=center;fontStyle=1;verticalAlign=middle;spacingLeft=3;spacingRight=3;strokeColor=none;rotatable=0;points=[[0,0.5],[1,0.5]];portConstraint=eastwest;" vertex="1" parent="1">
          <mxGeometry x="280" y="350" width="110" height="36" as="geometry" />
        </mxCell>
        <mxCell id="a1jD6eOK8sLwa8C1MBCz-84" value="Ofisler" style="swimlane;fontStyle=1;align=center;verticalAlign=top;childLayout=stackLayout;horizontal=1;startSize=26;horizontalStack=0;resizeParent=1;resizeParentMax=0;resizeLast=0;collapsible=1;marginBottom=0;" vertex="1" parent="1">
          <mxGeometry x="560" y="360" width="160" height="34" as="geometry" />
        </mxCell>
        <mxCell id="a1jD6eOK8sLwa8C1MBCz-86" value="" style="line;strokeWidth=1;fillColor=none;align=left;verticalAlign=middle;spacingTop=-1;spacingLeft=3;spacingRight=3;rotatable=0;labelPosition=right;points=[];portConstraint=eastwest;" vertex="1" parent="a1jD6eOK8sLwa8C1MBCz-84">
          <mxGeometry y="26" width="160" height="8" as="geometry" />
        </mxCell>
        <mxCell id="a1jD6eOK8sLwa8C1MBCz-95" value="1..*" style="text;align=center;fontStyle=1;verticalAlign=middle;spacingLeft=3;spacingRight=3;strokeColor=none;rotatable=0;points=[[0,0.5],[1,0.5]];portConstraint=eastwest;" vertex="1" parent="1">
          <mxGeometry x="140" y="140" width="70" height="26" as="geometry" />
        </mxCell>
        <mxCell id="a1jD6eOK8sLwa8C1MBCz-97" value="1" style="text;align=center;fontStyle=1;verticalAlign=middle;spacingLeft=3;spacingRight=3;strokeColor=none;rotatable=0;points=[[0,0.5],[1,0.5]];portConstraint=eastwest;" vertex="1" parent="1">
          <mxGeometry x="605" y="390" width="80" height="22" as="geometry" />
        </mxCell>
        <mxCell id="a1jD6eOK8sLwa8C1MBCz-102" value="" style="endArrow=none;startArrow=diamondThin;endFill=0;startFill=1;html=1;verticalAlign=bottom;labelBackgroundColor=none;strokeWidth=1;startSize=8;endSize=8;rounded=0;" edge="1" parent="1" source="a1jD6eOK8sLwa8C1MBCz-17" target="a1jD6eOK8sLwa8C1MBCz-84">
          <mxGeometry width="160" relative="1" as="geometry">
            <mxPoint x="630" y="180" as="sourcePoint" />
            <mxPoint x="620" y="300" as="targetPoint" />
            <Array as="points" />
          </mxGeometry>
        </mxCell>
        <mxCell id="a1jD6eOK8sLwa8C1MBCz-103" value="1" style="text;align=center;fontStyle=1;verticalAlign=middle;spacingLeft=3;spacingRight=3;strokeColor=none;rotatable=0;points=[[0,0.5],[1,0.5]];portConstraint=eastwest;" vertex="1" parent="1">
          <mxGeometry x="615" y="330" width="65" height="40" as="geometry" />
        </mxCell>
        <mxCell id="a1jD6eOK8sLwa8C1MBCz-106" value="Çalışma Ofisi" style="swimlane;fontStyle=1;align=center;verticalAlign=top;childLayout=stackLayout;horizontal=1;startSize=26;horizontalStack=0;resizeParent=1;resizeParentMax=0;resizeLast=0;collapsible=1;marginBottom=0;" vertex="1" parent="1">
          <mxGeometry x="320" y="160" width="160" height="34" as="geometry" />
        </mxCell>
        <mxCell id="a1jD6eOK8sLwa8C1MBCz-108" value="" style="line;strokeWidth=1;fillColor=none;align=left;verticalAlign=middle;spacingTop=-1;spacingLeft=3;spacingRight=3;rotatable=0;labelPosition=right;points=[];portConstraint=eastwest;" vertex="1" parent="a1jD6eOK8sLwa8C1MBCz-106">
          <mxGeometry y="26" width="160" height="8" as="geometry" />
        </mxCell>
        <mxCell id="a1jD6eOK8sLwa8C1MBCz-110" value="" style="endArrow=none;startArrow=diamondThin;endFill=0;startFill=1;html=1;verticalAlign=bottom;labelBackgroundColor=none;strokeWidth=1;startSize=8;endSize=8;rounded=0;" edge="1" parent="1" source="a1jD6eOK8sLwa8C1MBCz-1" target="a1jD6eOK8sLwa8C1MBCz-106">
          <mxGeometry width="160" relative="1" as="geometry">
            <mxPoint x="280" y="270" as="sourcePoint" />
            <mxPoint x="440" y="270" as="targetPoint" />
          </mxGeometry>
        </mxCell>
        <mxCell id="a1jD6eOK8sLwa8C1MBCz-111" value="has" style="text;align=center;fontStyle=1;verticalAlign=middle;spacingLeft=3;spacingRight=3;strokeColor=none;rotatable=0;points=[[0,0.5],[1,0.5]];portConstraint=eastwest;" vertex="1" parent="1">
          <mxGeometry x="380" y="110" width="80" height="26" as="geometry" />
        </mxCell>
        <mxCell id="a1jD6eOK8sLwa8C1MBCz-112" value="1..*" style="text;align=center;fontStyle=1;verticalAlign=middle;spacingLeft=3;spacingRight=3;strokeColor=none;rotatable=0;points=[[0,0.5],[1,0.5]];portConstraint=eastwest;" vertex="1" parent="1">
          <mxGeometry x="376" y="145" width="76" height="16" as="geometry" />
        </mxCell>
      </root>
    </mxGraphModel>
  </diagram>
</mxfile>
